<?xml version="1.0" encoding="utf-8"?>
<!-- Generator: Adobe Illustrator 26.1.0, SVG Export Plug-In . SVG Version: 6.00 Build 0)  -->
<svg version="1.1" id="Camada_1" xmlns="http://www.w3.org/2000/svg" xmlns:xlink="http://www.w3.org/1999/xlink" x="0px" y="0px"
	 viewBox="0 0 300 300" style="enable-background:new 0 0 300 300;" xml:space="preserve">
<style type="text/css">
	.st0{opacity:0.75;}
	.st1{fill:#FFFFFF;}
</style>
<g class="st0">
	<g>
		<path class="st1" d="M61.14,20.01c0-3.43-0.04-6.54,0.01-9.64C61.24,4.45,65.43,0.07,71.01,0c5.69-0.07,10.04,4.38,10.13,10.42
			c0.05,3.1,0.01,6.2,0.01,9.43c20.08,0,39.84,0,60.04,0c0-2.99-0.02-5.97,0-8.95c0.04-6.4,4.14-10.88,9.95-10.91
			c5.8-0.03,10,4.48,10.06,10.82c0.03,2.91,0,5.82,0,8.96c19.99,0,39.82,0,60.04,0c0-3.08-0.03-6.17,0.01-9.26
			c0.08-6.11,4.32-10.53,10.03-10.52c5.68,0.02,9.89,4.48,9.97,10.59c0.04,3.01,0.01,6.01,0.01,9.42c3.71,0,7.21,0,10.71,0
			c22.76,0.02,39.31,16.49,39.31,39.19c0.02,67.24,0.01,134.48,0,201.72c0,22.75-16.5,39.31-39.19,39.31
			c-67.23,0.02-134.45,0.01-201.68,0c-22.73,0-39.29-16.54-39.29-39.22c-0.01-67.24-0.01-134.48,0-201.72
			c0-22.73,16.53-39.26,39.22-39.28C53.77,20,57.21,20.01,61.14,20.01z M61.14,40.02c-3.49,0-6.5,0-9.52,0
			c-13.39,0-20.5,7.06-20.5,20.36c0,66.39,0.16,132.78-0.14,199.17c-0.06,12.59,8.54,20.85,20.66,20.8
			c66.38-0.28,132.75-0.13,199.13-0.13c13.36,0,20.5-7.09,20.5-20.38c0-59.93,0-119.86,0-179.78c0-7.4,0.08-14.8-0.03-22.2
			c-0.12-8.61-5.83-15.93-14.31-17.26c-5.03-0.79-10.29-0.14-15.68-0.14c0,2.85,0.02,5.75,0,8.65c-0.05,6.39-4.16,10.9-9.94,10.93
			c-5.79,0.04-10.01-4.48-10.06-10.81c-0.02-2.99,0-5.98,0-8.98c-20.2,0-40.03,0-60.04,0c0,3.12,0.02,6.03,0,8.93
			c-0.05,6.35-4.22,10.86-10.02,10.85c-5.78-0.01-9.94-4.53-9.99-10.89c-0.02-2.98,0-5.96,0-8.87c-20.25,0-40.09,0-60.04,0
			c0,3.16,0.02,6.07,0,8.98c-0.06,6.32-4.3,10.83-10.09,10.78c-5.67-0.05-9.84-4.52-9.91-10.65C61.11,46.38,61.14,43.38,61.14,40.02
			z"/>
		<path class="st1" d="M196.36,140.1c-11.36,0-22.72,0.02-34.08-0.01c-6.58-0.01-11.13-4.2-11.08-10.11
			c0.06-5.8,4.54-9.89,10.96-9.9c22.72-0.02,45.43-0.02,68.15,0c6.38,0.01,10.89,4.16,10.93,9.94c0.03,5.8-4.48,10.04-10.8,10.06
			C219.07,140.13,207.72,140.1,196.36,140.1z"/>
		<path class="st1" d="M196.39,210.16c11.25,0,22.51-0.01,33.76,0c6.58,0.01,11.14,4.19,11.09,10.09c-0.05,5.78-4.56,9.9-10.96,9.91
			c-22.72,0.02-45.43,0.02-68.15,0c-6.38-0.01-10.89-4.16-10.92-9.95c-0.03-5.82,4.45-10.04,10.8-10.05
			C173.46,210.14,184.93,210.16,196.39,210.16z"/>
		<path class="st1" d="M91.07,126.08c7.69-7.69,15.05-15.03,22.37-22.41c2.51-2.53,5.43-3.87,8.99-3.33
			c3.92,0.6,6.72,2.79,8.02,6.57c1.39,4.02,0.41,7.61-2.57,10.61c-7.2,7.24-14.42,14.44-21.64,21.66c-2.65,2.65-5.25,5.36-7.97,7.93
			c-4.32,4.08-10.03,4.1-14.26-0.05c-6.69-6.56-13.32-13.19-19.88-19.88c-4.12-4.19-4.11-10.34-0.15-14.27
			c3.96-3.94,10.06-3.93,14.27,0.2C82.49,117.24,86.59,121.53,91.07,126.08z"/>
		<path class="st1" d="M91.16,216.16c7.8-7.84,15.2-15.31,22.63-22.74c3-2.99,6.6-3.93,10.61-2.53c3.77,1.32,5.93,4.14,6.53,8.06
			c0.49,3.18-0.48,6.02-2.74,8.29c-9.98,10.05-19.96,20.1-30.05,30.03c-4.11,4.04-9.9,3.98-14.02-0.05
			c-6.78-6.62-13.48-13.33-20.1-20.1c-4-4.08-3.96-10.13-0.14-14.05c3.91-4.01,10.07-4.09,14.27-0.01
			C82.46,207.25,86.64,211.59,91.16,216.16z"/>
	</g>
</g>
</svg>
