<?xml version="1.0" encoding="utf-8"?>
<!-- Generator: Adobe Illustrator 26.1.0, SVG Export Plug-In . SVG Version: 6.00 Build 0)  -->
<svg version="1.1" id="Camada_1" xmlns="http://www.w3.org/2000/svg" xmlns:xlink="http://www.w3.org/1999/xlink" x="0px" y="0px"
	 viewBox="0 0 414 460.29" style="enable-background:new 0 0 414 460.29;" xml:space="preserve">
<style type="text/css">
	.st0{fill:#FFFFFF;}
</style>
<g>
	<g>
		<path class="st0" d="M403.97,310.38c0-3.95,0-7.9,0-11.85c0-9.89,0-19.78,0-29.67c0-12.96,0-25.91,0-38.87
			c0-12.94,0-25.88,0-38.82c0-10.04,0-20.09,0-30.13c0-4.21,0.02-8.41,0-12.62c-0.1-19.37-10.58-37.41-27.33-47.13
			c-4.31-2.5-8.64-4.99-12.96-7.48c-9.1-5.25-18.2-10.51-27.29-15.76c-11.33-6.54-22.66-13.08-33.98-19.62
			c-11.06-6.39-22.12-12.77-33.18-19.16c-8.13-4.69-16.25-9.38-24.38-14.08c-5.48-3.16-10.76-6.37-16.69-8.68
			c-11.41-4.45-25.07-4.54-36.57-0.35c-3.81,1.39-7.42,3.14-10.91,5.15c-5.68,3.28-11.36,6.56-17.04,9.84
			c-9.85,5.69-19.69,11.37-29.54,17.06c-11.48,6.63-22.96,13.26-34.45,19.89c-10.57,6.1-21.14,12.2-31.71,18.31
			c-7.13,4.12-14.27,8.24-21.4,12.35c-1.44,0.83-2.89,1.66-4.33,2.5c-7.18,4.16-13.11,9.78-17.89,16.54
			c-7.09,10.04-9.49,21.92-9.49,33.97c0,7.39,0,14.78,0,22.17c0,11.87,0,23.75,0,35.62c0,13.29,0,26.58,0,39.86
			c0,11.81,0,23.62,0,35.43c0,7.39,0,14.78,0,22.17c0,12.15,2.44,24.13,9.66,34.21c4.77,6.65,10.62,12.18,17.72,16.3
			c1.46,0.85,2.93,1.69,4.4,2.54c7.11,4.11,14.22,8.21,21.33,12.32c10.57,6.1,21.14,12.2,31.71,18.31
			c11.54,6.66,23.07,13.32,34.61,19.98c9.83,5.68,19.67,11.35,29.5,17.03c5.64,3.26,11.28,6.51,16.92,9.77
			c3.59,2.07,7.3,3.87,11.22,5.27c11.43,4.07,24.94,3.95,36.25-0.46c5.95-2.32,11.27-5.55,16.77-8.73
			c8.15-4.7,16.29-9.41,24.44-14.11c11.01-6.36,22.02-12.71,33.03-19.07c11.33-6.54,22.66-13.08,33.98-19.62
			c9.13-5.27,18.27-10.55,27.4-15.82c4.29-2.48,8.59-4.94,12.87-7.43C393.41,347.77,403.84,329.74,403.97,310.38
			c0.04-5.23-4.62-10.24-10-10c-5.45,0.24-9.96,4.39-10,10c-0.01,1.2-0.05,2.39-0.14,3.58c-0.05,0.57-0.19,1.2-0.18,1.77
			c-0.04-2.77,0.17-1.22,0.01-0.32c-0.44,2.5-1.1,4.96-1.96,7.34c-0.19,0.52-0.5,1.09-0.63,1.63c0.56-2.5,0.48-1.11,0.08-0.26
			c-0.49,1.05-1.03,2.08-1.6,3.09c-0.57,1.01-1.19,2-1.84,2.96c-0.33,0.48-0.67,0.95-1.01,1.42c-0.63,0.84-0.46,0.62,0.5-0.64
			c-0.24,0.3-0.49,0.6-0.74,0.9c-1.51,1.79-3.16,3.46-4.93,4.99c-0.41,0.35-1.03,0.71-1.36,1.13c0.36-0.28,0.73-0.56,1.09-0.84
			c-0.32,0.24-0.63,0.47-0.96,0.7c-1.14,0.81-2.31,1.55-3.52,2.26c-0.23,0.13-0.46,0.27-0.69,0.4c-4.83,2.79-9.65,5.57-14.48,8.36
			c-20.57,11.88-41.15,23.76-61.72,35.64c-18.64,10.76-37.27,21.52-55.91,32.28c-2.05,1.18-4.09,2.36-6.14,3.54
			c-0.41,0.24-0.82,0.48-1.23,0.71c-0.43,0.25-0.86,0.49-1.29,0.72c-0.59,0.32-1.19,0.62-1.8,0.92c-0.2,0.1-0.4,0.19-0.61,0.29
			c-0.99,0.44-0.81,0.37,0.55-0.21c-0.26,0.32-1.47,0.57-1.87,0.71c-0.83,0.3-1.67,0.57-2.52,0.81c-1.27,0.37-2.55,0.68-3.85,0.93
			c-0.28,0.06-1.78,0.13-1.94,0.33c0.45-0.06,0.9-0.12,1.36-0.18c-0.33,0.04-0.65,0.07-0.98,0.1c-2.72,0.26-5.46,0.27-8.18,0.03
			c-0.22-0.02-0.44-0.04-0.65-0.06c-1.11-0.13-0.87-0.09,0.7,0.11c-0.16-0.2-1.66-0.28-1.94-0.33c-1.29-0.25-2.58-0.56-3.85-0.93
			c-1.28-0.37-2.52-0.83-3.77-1.28c-2.19-0.79,2.02,1.01-0.07-0.04c-0.8-0.4-1.62-0.78-2.41-1.2c-1.24-0.67-2.45-1.39-3.67-2.1
			c-16.1-9.29-32.19-18.59-48.29-27.88c-21.71-12.53-43.42-25.07-65.13-37.6c-6.76-3.9-13.52-7.81-20.28-11.71
			c-1.31-0.76-2.62-1.51-3.93-2.27c-0.05-0.03-0.11-0.06-0.16-0.09c-1.03-0.6-2.05-1.24-3.03-1.92c-0.45-0.31-0.95-0.82-1.44-1.04
			c1.24,0.97,1.45,1.13,0.63,0.47c-0.3-0.25-0.61-0.5-0.9-0.76c-1.77-1.53-3.42-3.2-4.93-4.99c-0.56-0.66-1.15-2.08,0.11,0.21
			c-0.27-0.49-0.7-0.95-1.03-1.41c-0.77-1.11-1.5-2.26-2.17-3.44c-0.57-1.01-1.11-2.04-1.6-3.09c-0.4-0.85-0.49-2.24,0.08,0.26
			c-0.12-0.54-0.44-1.11-0.63-1.63c-0.79-2.2-1.41-4.47-1.85-6.77c-0.11-0.56-0.13-1.2-0.3-1.74c0.79,2.61,0.16,1.25,0.07,0.31
			c-0.11-1.19-0.18-2.38-0.19-3.57c0-0.26,0-0.52,0-0.79c-0.01-1.51,0-3.02,0-4.54c0-7.91,0-15.82,0-23.73c0-24.96,0-49.93,0-74.89
			c0-18.59,0-37.17,0-55.76c0-1.36-0.02-2.72,0.02-4.08c0.03-1.19,0.14-2.38,0.24-3.56c0.18-2.17-0.44,2.45-0.04,0.32
			c0.11-0.58,0.2-1.16,0.32-1.74c0.51-2.5,1.28-4.89,2.15-7.28c0.73-2-1.03,2.16-0.1,0.25c0.25-0.52,0.49-1.05,0.75-1.57
			c0.52-1.04,1.08-2.06,1.68-3.05c0.6-0.99,1.24-1.97,1.92-2.91c0.11-0.16,0.23-0.31,0.34-0.47c0.63-0.84,0.46-0.62-0.5,0.64
			c0.56-0.45,1.02-1.24,1.5-1.78c1.57-1.76,3.29-3.33,5.07-4.86c1.62-1.39-1.91,1.34-0.15,0.12c0.49-0.34,0.97-0.69,1.46-1.02
			c0.83-0.56,1.68-1.08,2.54-1.58c0.25-0.14,0.5-0.29,0.75-0.43c1.77-1.02,3.53-2.04,5.3-3.06c18.08-10.44,36.16-20.88,54.25-31.32
			c20.91-12.07,41.83-24.15,62.74-36.22c5.33-3.08,10.66-6.15,15.98-9.23c0.39-0.23,0.79-0.46,1.18-0.68
			c0.62-0.35,1.24-0.7,1.87-1.03c0.6-0.31,1.21-0.58,1.81-0.89c2.09-1.05-2.12,0.75,0.07-0.04c1.46-0.53,2.91-1.05,4.41-1.46
			c1.27-0.35,2.56-0.64,3.86-0.87c0.22-0.04,0.43-0.07,0.65-0.11c1.1-0.17,0.86-0.14-0.71,0.08c0.21,0.15,1.67-0.17,1.96-0.19
			c1.31-0.1,2.62-0.14,3.93-0.12c0.66,0.01,1.31,0.03,1.96,0.07c0.43,0.03,2.31,0.45,2.61,0.23c-0.45-0.06-0.9-0.12-1.36-0.18
			c0.43,0.06,0.87,0.14,1.3,0.21c0.65,0.12,1.29,0.25,1.94,0.39c1.29,0.29,2.56,0.64,3.82,1.05c0.63,0.2,1.26,0.42,1.88,0.65
			c0.21,0.08,0.41,0.16,0.62,0.24c1.01,0.41,0.83,0.33-0.54-0.24c0.32-0.08,1.52,0.71,1.82,0.86c0.81,0.4,1.6,0.83,2.38,1.28
			c11.82,6.73,23.57,13.61,35.35,20.41c22.17,12.8,44.33,25.59,66.5,38.39c12.77,7.37,25.57,14.69,38.31,22.12
			c0.22,0.13,0.44,0.25,0.65,0.38c1.02,0.61,2.03,1.26,3,1.95c0.16,0.12,0.32,0.23,0.48,0.35c0.84,0.63,0.64,0.47-0.61-0.49
			c0.46,0.57,1.26,1.03,1.8,1.51c1.76,1.56,3.32,3.27,4.86,5.05c1.39,1.6-1.35-1.92-0.13-0.19c0.33,0.48,0.68,0.94,1.01,1.42
			c0.76,1.12,1.47,2.28,2.12,3.46c0.56,1.02,1.06,2.07,1.56,3.11c0.92,1.92-0.83-2.25-0.1-0.25c0.2,0.55,0.41,1.09,0.6,1.64
			c0.84,2.41,1.39,4.87,1.86,7.38c0.4,2.14-0.22-2.49-0.04-0.32c0.05,0.59,0.12,1.18,0.16,1.78c0.07,1,0.09,1.99,0.1,2.99
			c0,0.08,0,0.17,0,0.25c0.01,4.83,0,9.66,0,14.5c0,23.21,0,46.43,0,69.64c0,22.24,0,44.48,0,66.72c0,3.62,0,7.25,0,10.87
			c0,5.23,4.6,10.24,10,10C399.39,320.14,403.97,315.99,403.97,310.38z"/>
	</g>
</g>
<g>
	<g>
		<path class="st0" d="M201.91,240.97c0,4.66,0,9.33,0,13.99c0,11.15,0,22.3,0,33.45c0,13.52,0,27.05,0,40.57
			c0,11.65,0,23.29,0,34.94c0,5.65-0.1,11.31,0,16.96c0,0.08,0,0.16,0,0.23c0,3.92,3.45,7.68,7.5,7.5c4.06-0.18,7.5-3.3,7.5-7.5
			c0-4.66,0-9.33,0-13.99c0-11.15,0-22.3,0-33.45c0-13.52,0-27.05,0-40.57c0-11.65,0-23.29,0-34.94c0-5.65,0.1-11.31,0-16.96
			c0-0.08,0-0.16,0-0.23c0-3.92-3.45-7.68-7.5-7.5C205.34,233.65,201.91,236.76,201.91,240.97L201.91,240.97z"/>
	</g>
</g>
<g>
	<g>
		<path class="st0" d="M60.78,161.3c4.81,2.82,9.62,5.64,14.43,8.46c11.55,6.77,23.1,13.53,34.65,20.3
			c13.97,8.18,27.93,16.36,41.9,24.55c12.01,7.03,24.01,14.07,36.02,21.1c5.86,3.43,11.67,6.97,17.59,10.31
			c0.08,0.05,0.16,0.09,0.24,0.14c3.39,1.98,8.37,0.89,10.26-2.69c1.9-3.6,0.93-8.14-2.69-10.26c-4.81-2.82-9.62-5.64-14.43-8.46
			c-11.55-6.77-23.1-13.53-34.65-20.3c-13.97-8.18-27.93-16.36-41.9-24.55c-12.01-7.03-24.01-14.07-36.02-21.1
			c-5.86-3.43-11.67-6.97-17.59-10.31c-0.08-0.05-0.16-0.09-0.24-0.14c-3.39-1.98-8.37-0.89-10.26,2.69
			C56.19,154.64,57.17,159.18,60.78,161.3L60.78,161.3z"/>
	</g>
</g>
<g>
	<g>
		<path class="st0" d="M213.19,247.44c4.64-2.61,9.28-5.21,13.92-7.82c11.14-6.25,22.29-12.51,33.43-18.76
			c13.47-7.56,26.95-15.12,40.42-22.69c11.58-6.5,23.16-13,34.74-19.5c5.66-3.17,11.39-6.25,16.98-9.53
			c0.08-0.05,0.16-0.09,0.24-0.13c3.42-1.92,4.86-6.9,2.69-10.26c-2.23-3.46-6.6-4.75-10.26-2.69c-4.64,2.61-9.28,5.21-13.92,7.82
			c-11.14,6.25-22.29,12.51-33.43,18.76c-13.47,7.56-26.95,15.12-40.42,22.69c-11.58,6.5-23.16,13-34.74,19.5
			c-5.66,3.17-11.39,6.25-16.98,9.53c-0.08,0.05-0.16,0.09-0.24,0.13c-3.42,1.92-4.86,6.9-2.69,10.26
			C205.16,248.22,209.53,249.5,213.19,247.44L213.19,247.44z"/>
	</g>
</g>
</svg>
